<?xml version="1.0" standalone="no"?>
<!DOCTYPE svg PUBLIC "-//W3C//DTD SVG 20010904//EN"
 "http://www.w3.org/TR/2001/REC-SVG-20010904/DTD/svg10.dtd">
<svg version="1.0" xmlns="http://www.w3.org/2000/svg"
 width="400.000000pt" height="400.000000pt" viewBox="0 0 400.000000 400.000000"
 preserveAspectRatio="xMidYMid meet">
<metadata>
Created by potrace 1.14, written by Peter Selinger 2001-2017
</metadata>
<g transform="translate(0.000000,400.000000) scale(0.100000,-0.100000)"
fill="#000000" stroke="none">
<path d="M3870 3997 c0 -2 7 -18 16 -36 11 -21 14 -44 10 -67 -4 -20 -3 -34 3
-34 6 0 15 -18 21 -40 6 -22 15 -40 20 -40 6 0 10 -9 10 -21 0 -11 -4 -17 -10
-14 -12 7 -11 12 -16 -56 -3 -42 0 -60 11 -69 8 -7 15 -21 15 -31 0 -18 -2
-18 -24 -4 -13 9 -31 31 -39 48 -15 31 -81 76 -93 64 -10 -10 14 -43 51 -71
19 -15 47 -38 62 -52 14 -13 32 -24 39 -24 8 0 14 -6 14 -13 0 -8 9 -22 20
-32 20 -18 20 -17 20 103 0 66 -3 122 -7 124 -25 10 -73 162 -73 227 0 37 -2
41 -25 41 -14 0 -25 -2 -25 -3z"/>
<path d="M2725 3578 c19 -67 51 -128 68 -128 13 0 16 5 11 24 -3 13 -1 33 4
43 13 24 5 36 -35 54 -18 8 -33 17 -33 21 0 5 -5 8 -11 8 -6 0 -8 -9 -4 -22z"/>
<path d="M3010 3450 c0 -23 13 -26 29 -6 9 11 8 15 -5 20 -23 9 -24 8 -24 -14z"/>
<path d="M51 3337 c-6 -16 -20 -31 -31 -34 -20 -5 -29 -33 -11 -33 22 0 41 13
41 29 0 9 5 22 11 28 6 6 9 17 6 25 -3 8 -9 2 -16 -15z"/>
<path d="M2710 3080 c6 -11 15 -20 21 -20 10 0 66 -60 82 -86 5 -8 14 -49 22
-92 22 -124 40 -193 67 -257 45 -106 58 -157 52 -205 -3 -24 -8 -48 -10 -52
-10 -16 35 -7 57 12 l24 19 -22 1 c-20 0 -23 5 -23 38 0 21 3 42 8 46 4 4 8
12 8 17 1 5 2 13 3 18 0 5 17 30 36 55 19 25 33 46 30 46 -3 0 1 13 10 30 20
39 19 47 -5 25 -19 -17 -20 -17 -26 1 -3 11 -14 35 -24 55 -11 19 -21 52 -23
72 -6 52 -17 59 -17 11 0 -22 11 -63 25 -91 13 -28 27 -62 30 -76 7 -27 -11
-71 -25 -62 -4 3 -14 -11 -20 -31 -9 -26 -15 -32 -21 -23 -4 7 -5 17 -3 21 3
4 0 8 -6 8 -20 0 -69 126 -94 239 -27 127 -28 226 -2 262 19 28 21 52 1 25 -7
-10 -18 -15 -24 -11 -11 6 -15 -17 -11 -62 2 -30 -21 -21 -43 16 -9 16 -33 38
-52 50 -35 20 -35 20 -25 1z"/>
<path d="M2971 2924 c0 -11 3 -14 6 -6 3 7 2 16 -1 19 -3 4 -6 -2 -5 -13z"/>
<path d="M3126 2729 c-14 -11 -26 -25 -26 -30 0 -6 5 -6 13 1 6 5 23 19 37 30
14 10 20 19 14 20 -6 0 -23 -9 -38 -21z"/>
<path d="M2046 2724 c-3 -9 -6 -27 -6 -40 0 -13 -5 -24 -11 -24 -15 0 -5 -100
12 -111 8 -5 10 -9 4 -10 -5 -1 -14 -2 -20 -4 -5 -1 -31 -3 -57 -3 -27 -1 -48
-7 -48 -12 0 -7 22 -8 63 -4 49 5 72 2 112 -14 50 -19 50 -20 56 -73 4 -35 6
-42 7 -21 2 36 17 43 27 12 3 -11 11 -20 16 -20 5 0 9 -14 9 -31 0 -27 -3 -30
-22 -23 -13 4 -25 11 -28 15 -4 5 -22 11 -40 14 -33 5 -33 5 -9 -5 20 -8 26
-16 22 -30 -3 -11 0 -20 6 -20 6 0 11 7 11 15 0 12 5 13 27 4 15 -6 31 -15 35
-22 11 -18 18 -4 20 42 1 23 5 44 9 47 8 4 29 -57 29 -83 0 -7 4 -13 9 -13 5
0 5 17 0 41 -8 34 -6 45 11 69 11 15 20 32 20 38 0 5 9 21 20 35 13 16 16 28
10 32 -5 3 -10 -2 -10 -11 0 -14 -3 -15 -12 -6 -9 9 -9 22 0 57 13 49 16 102
5 91 -4 -3 -9 -25 -12 -49 -4 -29 -11 -43 -23 -45 -14 -3 -18 4 -19 25 -1 15
-5 39 -9 53 -6 17 -8 1 -5 -48 2 -51 -1 -72 -9 -69 -6 3 -10 11 -8 18 2 8 -6
4 -17 -8 -12 -12 -21 -27 -21 -33 0 -16 -34 -12 -56 8 -10 10 -35 25 -56 35
-42 20 -62 62 -48 105 18 57 23 120 6 76z m191 -240 c-9 -9 -28 6 -21 18 4 6
10 6 17 -1 6 -6 8 -13 4 -17z m-17 -62 c0 -9 -7 -6 -20 11 -11 14 -20 29 -20
33 0 4 9 -1 20 -11 11 -10 20 -25 20 -33z m60 18 c0 -5 -2 -10 -4 -10 -3 0 -8
5 -11 10 -3 6 -1 10 4 10 6 0 11 -4 11 -10z"/>
<path d="M1840 2685 c0 -8 15 -22 33 -31 l32 -16 -29 31 c-34 35 -36 36 -36
16z"/>
<path d="M2730 2670 c0 -5 -6 -10 -13 -10 -8 0 -24 -25 -37 -56 -13 -30 -27
-57 -31 -60 -5 -2 -17 15 -28 38 -10 24 -20 35 -20 26 -1 -9 4 -20 9 -23 6 -3
10 -19 10 -35 0 -20 -8 -33 -29 -47 -16 -10 -29 -22 -29 -28 0 -5 -5 -11 -12
-13 -6 -2 -4 13 6 38 13 33 15 47 6 61 -7 10 -9 25 -6 34 10 25 -14 17 -33
-11 -9 -15 -17 -47 -18 -72 0 -28 -5 -47 -13 -50 -11 -3 -11 0 -1 15 10 17 9
23 -10 42 -12 12 -19 26 -16 30 2 5 -2 11 -10 15 -8 3 -15 13 -15 21 0 9 -5
13 -10 10 -6 -4 -19 4 -30 17 -11 13 -19 18 -20 12 0 -6 7 -17 15 -24 8 -7 15
-21 15 -32 0 -10 7 -29 15 -42 9 -13 20 -37 24 -54 8 -26 6 -33 -12 -46 l-22
-16 25 6 c22 4 28 -1 48 -41 27 -55 28 -66 5 -58 -39 14 -82 55 -85 81 -3 23
-5 24 -15 12 -7 -8 -24 -28 -38 -44 -29 -34 -25 -50 5 -18 26 28 29 28 76 -6
35 -25 87 -52 100 -52 2 0 -2 13 -10 29 -9 16 -20 47 -25 70 -8 36 -7 41 9 41
10 0 24 2 32 5 20 8 40 -52 26 -78 -9 -17 -8 -19 6 -14 10 4 15 3 12 -2 -3 -4
1 -17 9 -27 14 -17 14 -15 8 26 -4 25 -7 53 -7 62 0 9 -3 15 -6 13 -3 -2 -11
5 -18 15 -9 14 -8 21 3 30 18 15 35 5 35 -23 1 -12 7 -35 15 -52 12 -27 13
-28 14 -7 1 12 5 22 11 22 5 0 12 11 16 25 4 18 13 25 30 25 13 0 24 5 24 10
0 6 -11 10 -24 10 -22 0 -24 4 -23 34 1 19 5 32 10 29 4 -2 7 1 7 7 0 6 19 20
43 30 23 11 34 20 25 20 -21 0 -23 11 -6 28 26 26 -2 10 -33 -19 -18 -17 -35
-26 -37 -21 -4 13 26 61 53 84 12 10 15 17 8 18 -7 0 -13 -4 -13 -10z m-280
-145 c0 -5 -5 -3 -10 5 -5 8 -10 20 -10 25 0 6 5 3 10 -5 5 -8 10 -19 10 -25z
m110 4 c0 -5 -12 -9 -26 -9 -14 0 -23 4 -20 8 7 11 46 12 46 1z m100 -15 c0
-3 -7 -12 -15 -21 -20 -19 -32 -9 -15 12 12 15 30 20 30 9z"/>
<path d="M3011 2654 c0 -11 3 -14 6 -6 3 7 2 16 -1 19 -3 4 -6 -2 -5 -13z"/>
<path d="M2420 2635 c0 -14 4 -25 9 -25 4 0 6 11 3 25 -2 14 -6 25 -8 25 -2 0
-4 -11 -4 -25z"/>
<path d="M3482 2592 c-18 -87 -14 -94 13 -23 13 36 22 68 19 73 -12 19 -21 5
-32 -50z"/>
<path d="M3342 2603 c6 -16 17 -42 24 -60 8 -17 14 -35 14 -41 0 -5 7 -16 17
-23 9 -8 14 -9 12 -3 -30 77 -66 154 -71 154 -4 0 -3 -12 4 -27z"/>
<path d="M1950 2599 c0 -5 5 -7 10 -4 6 3 10 8 10 11 0 2 -4 4 -10 4 -5 0 -10
-5 -10 -11z"/>
<path d="M2577 2586 c-4 -10 -5 -21 -2 -24 9 -9 17 6 13 25 -3 17 -4 17 -11
-1z"/>
<path d="M1700 2575 c0 -4 60 -35 67 -35 2 0 2 4 -1 9 -6 9 -66 33 -66 26z"/>
<path d="M1940 2576 c0 -2 7 -9 15 -16 13 -11 14 -10 9 4 -5 14 -24 23 -24 12z"/>
<path d="M3866 2564 c-5 -14 -4 -15 9 -4 17 14 19 20 6 20 -5 0 -12 -7 -15
-16z"/>
<path d="M2210 2559 c0 -5 5 -7 10 -4 6 3 10 8 10 11 0 2 -4 4 -10 4 -5 0 -10
-5 -10 -11z"/>
<path d="M1882 2534 c-7 -12 -21 -15 -60 -13 -43 3 -50 1 -49 -13 1 -11 9 -17
22 -16 11 1 52 -15 90 -36 62 -34 67 -35 47 -13 -13 14 -35 28 -48 31 -13 4
-24 14 -24 22 0 14 3 14 15 4 10 -9 15 -9 16 -1 3 20 4 26 12 39 5 6 4 12 -2
12 -5 0 -14 -7 -19 -16z"/>
<path d="M1700 2520 c20 -13 33 -13 25 0 -3 6 -14 10 -23 10 -15 0 -15 -2 -2
-10z"/>
<path d="M3073 2511 c-9 -14 -9 -23 1 -37 18 -27 26 -63 15 -70 -5 -3 -9 -11
-9 -19 0 -9 9 -5 25 11 27 27 33 46 13 42 -7 -2 -16 17 -22 45 -10 42 -12 45
-23 28z"/>
<path d="M1730 2491 c0 -10 30 -24 37 -17 3 2 -5 9 -16 16 -12 6 -21 7 -21 1z"/>
<path d="M3458 2457 c-3 -19 -2 -25 4 -19 6 6 8 18 6 28 -3 14 -5 12 -10 -9z"/>
<path d="M3827 2467 c-4 -10 -7 -26 -7 -35 1 -15 2 -15 11 1 6 10 9 25 7 35
-3 16 -4 15 -11 -1z"/>
<path d="M1970 2445 c0 -3 5 -14 12 -25 7 -10 9 -23 5 -27 -5 -4 -12 -1 -16 6
-7 11 -10 11 -17 0 -5 -8 -1 -17 11 -23 10 -6 29 -21 42 -33 23 -22 43 -30 43
-17 0 3 -9 13 -19 22 -11 10 -22 27 -26 40 -5 18 -2 22 17 22 13 0 29 -5 36
-12 6 -6 14 -9 17 -6 3 3 -18 17 -46 31 -53 28 -59 30 -59 22z"/>
<path d="M2876 2425 c12 -55 24 -60 41 -15 6 17 8 30 3 30 -5 0 -10 -6 -13
-12 -3 -9 -10 -7 -21 7 -16 19 -16 19 -10 -10z"/>
<path d="M1840 2424 c0 -5 28 -16 70 -29 14 -4 21 -4 17 1 -9 10 -87 34 -87
28z"/>
<path d="M3000 2419 c0 -5 5 -7 10 -4 6 3 10 8 10 11 0 2 -4 4 -10 4 -5 0 -10
-5 -10 -11z"/>
<path d="M3261 2400 c0 -14 6 -34 14 -44 18 -24 18 -21 0 29 -11 32 -14 35
-14 15z"/>
<path d="M3670 2402 c0 -10 31 -55 44 -64 15 -11 26 -10 26 2 0 6 -6 10 -14
10 -7 0 -19 14 -26 30 -11 27 -30 41 -30 22z"/>
<path d="M3820 2400 c0 -5 5 -10 10 -10 6 0 10 5 10 10 0 6 -4 10 -10 10 -5 0
-10 -4 -10 -10z"/>
<path d="M3815 2361 c21 -22 43 -41 48 -41 5 0 1 7 -7 16 -9 8 -16 21 -16 29
0 7 -8 15 -17 19 -10 3 -25 9 -33 12 -8 4 3 -12 25 -35z"/>
<path d="M2660 2354 c0 -20 -4 -33 -10 -29 -6 4 -7 -2 -1 -16 4 -13 14 -25 20
-27 10 -3 10 0 2 16 -6 10 -9 21 -7 23 9 11 14 69 6 69 -6 0 -10 -16 -10 -36z"/>
<path d="M3315 2370 c-10 -11 -16 -22 -13 -25 3 -3 13 6 22 20 20 30 16 32 -9
5z"/>
<path d="M3437 2383 c-4 -3 -7 -18 -7 -32 l0 -26 15 29 c8 15 15 30 15 32 0 6
-16 5 -23 -3z"/>
<path d="M3532 2374 c-23 -16 -29 -34 -12 -34 6 0 10 7 10 15 0 8 6 15 14 15
8 0 18 5 21 10 9 15 -8 12 -33 -6z"/>
<path d="M2911 2371 c-8 -5 -9 -11 -3 -15 5 -3 12 1 16 9 6 17 6 18 -13 6z"/>
<path d="M3070 2357 c0 -3 -9 -30 -21 -59 -11 -29 -16 -48 -11 -43 14 15 44
97 37 103 -3 3 -5 2 -5 -1z"/>
<path d="M3755 2330 c-4 -6 6 -10 22 -10 22 0 25 2 13 10 -19 12 -27 12 -35 0z"/>
<path d="M2736 2315 c-9 -26 -7 -32 5 -12 6 10 9 21 6 23 -2 3 -7 -2 -11 -11z"/>
<path d="M3557 2319 c7 -7 15 -10 18 -7 3 3 -2 9 -12 12 -14 6 -15 5 -6 -5z"/>
<path d="M3096 2275 c-9 -26 -7 -32 5 -12 6 10 9 21 6 23 -2 3 -7 -2 -11 -11z"/>
<path d="M3627 2242 c78 -77 78 -77 79 -24 2 46 2 46 -8 14 -8 -29 -11 -32
-24 -21 -9 7 -24 29 -34 48 -11 20 -19 29 -20 22 0 -12 -3 -12 -12 -3 -7 7
-16 12 -20 12 -5 0 13 -21 39 -48z"/>
<path d="M3325 2180 c3 -5 8 -10 11 -10 2 0 4 5 4 10 0 6 -5 10 -11 10 -5 0
-7 -4 -4 -10z"/>
<path d="M2791 1633 c-7 -8 -11 -16 -8 -19 2 -2 10 2 17 11 17 20 9 27 -9 8z"/>
<path d="M2495 1592 c-24 -5 -78 -42 -71 -49 2 -3 15 2 28 11 25 18 38 20 38
7 0 -5 -16 -15 -34 -22 -19 -7 -33 -16 -31 -20 6 -9 -21 -75 -29 -71 -14 5
-26 1 -26 -10 0 -9 3 -9 11 -1 6 6 17 9 24 7 6 -3 18 2 25 11 7 8 18 15 24 15
6 0 4 -5 -4 -10 -9 -6 -10 -10 -3 -10 21 0 43 12 37 21 -3 5 5 9 18 9 16 0 19
3 10 9 -15 9 -15 20 -1 38 7 7 6 14 -1 18 -15 9 -12 23 5 27 8 2 11 8 7 13 -4
6 -16 9 -27 7z"/>
<path d="M2608 1523 c7 -3 16 -2 19 1 4 3 -2 6 -13 5 -11 0 -14 -3 -6 -6z"/>
<path d="M2541 1484 c0 -11 3 -14 6 -6 3 7 2 16 -1 19 -3 4 -6 -2 -5 -13z"/>
<path d="M2569 1473 c-1 -5 0 -12 1 -18 1 -5 -2 -7 -5 -3 -4 4 -16 3 -26 -3
-14 -7 -19 -6 -19 2 0 7 -2 10 -5 7 -11 -10 8 -39 22 -34 11 4 13 0 8 -17 -5
-18 -3 -17 10 6 9 15 23 27 33 28 9 0 12 3 5 5 -7 3 -9 12 -6 20 3 8 0 14 -6
14 -6 0 -12 -3 -12 -7z"/>
<path d="M3736 1457 c3 -10 9 -15 12 -12 3 3 0 11 -7 18 -10 9 -11 8 -5 -6z"/>
<path d="M3681 1444 c0 -11 3 -14 6 -6 3 7 2 16 -1 19 -3 4 -6 -2 -5 -13z"/>
<path d="M1225 1436 c-11 -6 -23 -15 -27 -21 -12 -16 -9 -53 5 -58 9 -3 8 -9
-4 -23 -8 -10 -16 -37 -17 -59 -1 -22 1 -34 4 -27 3 6 14 12 25 12 13 0 17 -5
12 -17 -3 -10 -3 -15 2 -11 4 4 14 3 20 -2 9 -8 14 -6 18 4 4 9 2 18 -2 20 -5
3 -7 21 -4 41 2 20 -1 35 -7 35 -5 0 -10 7 -10 16 0 9 5 12 13 8 8 -5 8 -2 -2
9 -7 9 -10 17 -5 17 11 0 16 58 6 63 -4 3 -16 0 -27 -7z"/>
<path d="M1440 1431 c0 -5 -8 -12 -17 -15 -11 -3 -8 -4 6 -3 24 2 44 27 22 27
-6 0 -11 -4 -11 -9z"/>
<path d="M1546 1378 c-6 -29 -2 -47 8 -37 3 2 7 17 10 32 7 38 -10 43 -18 5z"/>
<path d="M3713 1373 c-31 -6 -29 -20 3 -26 18 -3 24 -1 20 9 -3 7 0 15 7 18
14 5 1 5 -30 -1z"/>
<path d="M1477 1340 c-5 -20 9 -38 20 -26 4 3 1 6 -7 6 -10 0 -10 3 -1 14 7 8
8 17 3 20 -6 3 -12 -3 -15 -14z"/>
<path d="M3807 1353 c-4 -3 -7 -11 -7 -17 0 -6 5 -5 12 2 6 6 9 14 7 17 -3 3
-9 2 -12 -2z"/>
<path d="M1524 1305 c-8 -13 -13 -29 -9 -35 3 -5 -1 -10 -9 -10 -9 0 -15 3
-15 8 3 19 -2 33 -11 27 -14 -8 6 -45 24 -45 21 0 7 -42 -16 -48 -14 -3 -18
-11 -14 -25 3 -12 0 -27 -6 -35 -9 -10 -8 -16 3 -24 10 -7 7 -8 -13 -4 -29 7
-34 1 -18 -24 5 -9 5 -17 -1 -21 -6 -3 -4 -17 6 -35 11 -22 12 -30 2 -34 -7
-3 -12 -15 -11 -27 1 -13 -3 -23 -9 -23 -5 0 -7 -13 -5 -30 3 -21 0 -30 -9
-30 -8 0 -11 -4 -8 -10 3 -5 -1 -10 -9 -10 -10 0 -16 -9 -16 -25 0 -16 -6 -25
-15 -25 -9 0 -20 -12 -25 -26 -6 -14 -14 -22 -20 -19 -5 3 -10 2 -10 -4 0 -6
-16 -27 -36 -46 -20 -20 -33 -39 -29 -43 4 -4 17 5 29 21 15 19 31 27 53 27
18 0 35 4 38 10 3 6 -1 7 -10 4 -11 -5 -14 -2 -9 10 6 15 9 15 28 2 12 -8 56
-16 99 -18 42 -3 80 -7 83 -11 3 -3 8 -30 11 -59 2 -34 1 -48 -5 -39 -8 11
-10 11 -14 0 -7 -20 62 -81 84 -76 10 3 16 1 12 -4 -3 -5 -1 -9 5 -9 5 0 12 4
15 8 3 5 59 7 125 5 72 -2 121 0 121 6 0 5 -6 12 -12 14 -10 4 -9 8 2 16 10 7
11 11 3 11 -7 0 -13 10 -13 23 0 18 -2 19 -10 7 -7 -11 -10 -5 -10 23 0 20 5
37 11 37 5 0 7 -5 4 -10 -3 -5 -1 -10 5 -10 13 0 3 43 -12 48 -5 2 -4 9 1 16
6 7 13 37 17 67 5 42 13 61 38 86 17 18 37 33 44 33 6 0 12 4 12 9 0 5 16 26
35 47 19 20 35 45 35 54 0 11 10 20 30 24 35 7 40 33 8 39 -20 4 -19 4 5 6 15
0 27 -3 27 -9 0 -5 7 -10 16 -10 14 0 14 3 4 15 -7 8 -18 15 -25 15 -8 0 -15
5 -17 10 -2 6 -13 12 -25 13 -18 1 -20 4 -11 20 7 13 7 17 0 13 -6 -3 -13 0
-15 6 -3 7 -6 9 -6 3 -1 -11 -83 -11 -100 0 -6 3 -11 1 -11 -4 0 -6 -7 -11
-15 -11 -8 0 -15 -6 -15 -14 0 -7 -9 -16 -20 -19 -13 -3 -18 -10 -14 -21 3 -9
2 -16 -4 -16 -6 0 -12 4 -14 8 -1 5 -16 0 -33 -10 -29 -19 -29 -20 -5 -15 14
2 36 1 50 -4 24 -8 24 -8 -5 -7 -55 1 -62 -1 -45 -12 20 -12 21 -70 0 -70 -12
-1 -11 -4 4 -15 16 -12 17 -15 4 -15 -9 0 -19 8 -23 18 -6 16 -7 16 -16 0 -5
-10 -17 -14 -29 -11 -23 6 -25 0 -9 -25 10 -15 7 -24 -11 -45 -18 -20 -26 -24
-37 -16 -10 9 -15 6 -22 -12 -5 -13 -10 -18 -10 -11 -1 6 -6 12 -12 12 -5 0
-7 -4 -4 -10 3 -5 1 -10 -4 -10 -6 0 -11 3 -12 8 -8 60 -7 98 4 110 10 13 9
14 -2 7 -11 -6 -13 -4 -8 9 4 10 10 35 13 56 5 33 2 42 -25 70 -26 28 -31 30
-31 14 -1 -17 -2 -16 -13 4 -7 12 -16 20 -20 16 -18 -19 -21 133 -2 179 11 26
-12 21 -31 -8z m523 -251 c-3 -3 -12 -4 -19 -1 -8 3 -5 6 6 6 11 1 17 -2 13
-5z m-113 -19 c8 -8 19 -15 25 -15 6 0 11 -4 11 -10 0 -5 -6 -10 -14 -10 -8 0
-16 -6 -19 -14 -3 -7 -16 -15 -30 -18 -28 -5 -65 16 -47 27 8 5 8 10 0 20 -7
8 -9 19 -5 25 9 15 61 12 79 -5z m40 -60 c-4 -8 -8 -15 -10 -15 -2 0 -4 7 -4
15 0 8 4 15 10 15 5 0 7 -7 4 -15z m-38 -22 c-4 -5 -11 -8 -14 -8 -4 0 -13 -4
-19 -8 -9 -5 -13 -3 -13 7 0 11 9 16 27 16 14 0 23 -3 19 -7z m-136 -17 c0 -2
-7 -9 -15 -16 -12 -10 -15 -10 -15 4 0 9 7 16 15 16 8 0 15 -2 15 -4z m20 -50
c0 -2 -7 -7 -16 -10 -8 -3 -12 -2 -9 4 6 10 25 14 25 6z"/>
<path d="M1905 1020 c3 -5 8 -10 11 -10 2 0 4 5 4 10 0 6 -5 10 -11 10 -5 0
-7 -4 -4 -10z"/>
<path d="M3854 1291 c0 -23 4 -41 8 -41 11 0 10 52 -1 69 -5 8 -8 -2 -7 -28z"/>
<path d="M3905 1309 c-4 -6 -5 -12 -2 -15 2 -3 7 2 10 11 7 17 1 20 -8 4z"/>
<path d="M3560 1299 c0 -5 5 -7 10 -4 6 3 10 8 10 11 0 2 -4 4 -10 4 -5 0 -10
-5 -10 -11z"/>
<path d="M3918 1283 c-10 -2 -18 -9 -18 -14 0 -6 -4 -8 -8 -5 -4 2 -8 -4 -8
-15 0 -10 4 -19 8 -19 4 0 8 -6 8 -13 0 -8 9 -13 23 -11 12 1 27 3 32 3 6 1 4
5 -4 10 -8 5 -20 7 -26 5 -16 -6 -26 19 -15 36 7 11 11 11 24 1 9 -7 23 -11
31 -7 8 3 15 1 15 -4 0 -6 5 -10 10 -10 6 0 10 9 10 21 0 16 -4 19 -17 14 -30
-11 -38 -11 -35 3 2 12 -1 13 -30 5z"/>
<path d="M1480 1224 c0 -8 5 -12 10 -9 6 3 10 10 10 16 0 5 -4 9 -10 9 -5 0
-10 -7 -10 -16z"/>
<path d="M3520 1231 c0 -6 5 -13 10 -16 8 -5 8 -11 0 -20 -6 -7 -7 -16 -2 -19
5 -3 14 10 20 29 9 31 8 35 -9 35 -10 0 -19 -4 -19 -9z"/>
<path d="M3740 1230 c0 -5 5 -10 11 -10 5 0 7 5 4 10 -3 6 -8 10 -11 10 -2 0
-4 -4 -4 -10z"/>
<path d="M3985 1222 c-13 -9 -13 -44 0 -49 6 -2 11 10 10 27 0 16 0 30 0 30 0
0 -4 -4 -10 -8z"/>
<path d="M3605 1200 c-4 -6 -16 -10 -26 -7 -11 3 -19 1 -19 -4 0 -14 33 -24
37 -12 2 6 23 9 51 6 44 -4 46 -3 28 11 -13 10 -23 12 -31 6 -7 -6 -15 -6 -22
1 -8 8 -13 7 -18 -1z"/>
<path d="M3733 1175 c-15 -8 -19 -15 -13 -25 7 -11 11 -10 25 3 22 23 15 36
-12 22z"/>
<path d="M3850 1176 c0 -2 7 -6 15 -10 8 -3 15 -1 15 4 0 6 -7 10 -15 10 -8 0
-15 -2 -15 -4z"/>
<path d="M3910 1161 c0 -12 -4 -21 -10 -21 -5 0 -7 -7 -4 -15 5 -12 10 -13 20
-4 11 9 16 5 25 -15 10 -21 15 -24 27 -14 12 10 11 13 -5 19 -10 3 -20 19 -23
34 -6 34 -30 46 -30 16z"/>
<path d="M2872 1154 c-7 -8 -8 -14 -3 -14 5 0 18 -3 28 -6 11 -4 14 -3 7 3 -6
4 -13 13 -15 20 -3 8 -8 7 -17 -3z"/>
<path d="M3810 1160 c0 -5 -12 -16 -27 -24 -16 -8 -22 -15 -15 -16 6 0 12 -6
12 -14 0 -8 -6 -17 -12 -19 -8 -3 -6 -6 5 -6 15 -1 22 15 19 41 -1 3 5 9 13
12 8 3 15 1 15 -5 0 -6 7 -8 16 -5 12 4 14 1 9 -14 -4 -11 -2 -20 4 -20 6 0
11 -7 11 -15 0 -8 4 -15 8 -15 10 0 8 50 -2 73 -5 10 -15 16 -22 13 -8 -3 -14
1 -14 9 0 8 -4 15 -10 15 -5 0 -10 -4 -10 -10z"/>
<path d="M3957 1144 c-2 -13 0 -24 4 -24 5 0 9 6 9 14 0 8 8 16 18 18 14 3 13
5 -5 10 -17 4 -22 1 -26 -18z"/>
<path d="M2790 1152 c0 -5 7 -9 15 -9 8 0 15 4 15 9 0 4 -7 8 -15 8 -8 0 -15
-4 -15 -8z"/>
<path d="M2150 1121 c0 -5 9 -7 20 -4 11 3 20 7 20 9 0 2 -9 4 -20 4 -11 0
-20 -4 -20 -9z"/>
<path d="M2696 1095 c-3 -8 -1 -15 4 -15 6 0 10 7 10 15 0 8 -2 15 -4 15 -2 0
-6 -7 -10 -15z"/>
<path d="M3800 1091 c0 -5 6 -12 13 -14 7 -4 6 -6 -4 -6 -22 -1 -43 -27 -29
-36 5 -3 10 0 10 7 0 9 3 9 8 2 4 -6 14 -11 23 -11 19 0 14 53 -7 61 -8 3 -14
1 -14 -3z"/>
<path d="M2728 1083 c7 -3 16 -2 19 1 4 3 -2 6 -13 5 -11 0 -14 -3 -6 -6z"/>
<path d="M3905 1073 c-3 -9 0 -20 7 -25 9 -5 6 -8 -9 -8 -12 0 -25 -4 -28 -10
-8 -13 11 -13 36 1 16 8 18 14 9 24 -8 10 -7 14 7 17 16 3 16 4 1 10 -10 4
-19 1 -23 -9z"/>
<path d="M1667 1069 c7 -7 15 -10 18 -7 3 3 -2 9 -12 12 -14 6 -15 5 -6 -5z"/>
<path d="M2828 1057 c-7 -8 -20 -16 -28 -20 -8 -3 3 -5 25 -5 22 0 34 2 26 5
-10 4 -10 7 -1 13 8 5 9 10 2 14 -6 3 -16 0 -24 -7z"/>
<path d="M1756 1048 c3 -4 11 -5 19 -1 21 7 19 12 -4 10 -11 0 -18 -5 -15 -9z"/>
<path d="M2714 1049 c-3 -6 -1 -16 4 -21 8 -8 11 -5 9 11 -1 24 -3 25 -13 10z"/>
<path d="M3530 1056 c0 -2 7 -7 16 -10 8 -3 12 -2 9 4 -6 10 -25 14 -25 6z"/>
<path d="M3605 1050 c3 -5 14 -10 23 -10 15 0 15 2 2 10 -20 13 -33 13 -25 0z"/>
<path d="M2489 1037 c7 -7 14 -8 21 -1 6 6 2 10 -12 11 -16 2 -18 -1 -9 -10z"/>
<path d="M1772 1005 c0 -16 2 -22 5 -12 2 9 2 23 0 30 -3 6 -5 -1 -5 -18z"/>
<path d="M3630 1020 c-8 -5 -12 -11 -10 -14 3 -2 14 2 24 10 22 15 10 19 -14
4z"/>
<path d="M2464 1011 c4 -5 0 -11 -6 -14 -8 -2 -9 -8 -4 -13 5 -5 11 -4 13 4 3
6 9 10 14 7 5 -4 6 1 3 9 -3 9 -10 16 -16 16 -5 0 -7 -4 -4 -9z"/>
<path d="M2638 1013 c6 -2 9 -10 6 -15 -4 -7 -2 -8 5 -4 13 9 5 26 -12 25 -9
0 -8 -2 1 -6z"/>
<path d="M2854 1005 c-4 -8 -11 -12 -17 -8 -6 3 -7 1 -3 -5 9 -15 36 -4 36 14
0 18 -9 18 -16 -1z"/>
<path d="M3570 1016 c0 -2 7 -6 15 -10 8 -3 15 -1 15 4 0 6 -7 10 -15 10 -8 0
-15 -2 -15 -4z"/>
<path d="M3758 1013 c7 -3 16 -2 19 1 4 3 -2 6 -13 5 -11 0 -14 -3 -6 -6z"/>
<path d="M3790 1010 c0 -6 -10 -15 -22 -20 -13 -5 -17 -9 -10 -9 17 -1 15 -21
-3 -21 -17 0 -20 -16 -5 -25 6 -3 10 -1 10 4 0 6 7 11 15 11 8 0 16 5 16 10 3
20 4 25 12 37 4 6 3 14 -3 18 -5 3 -10 1 -10 -5z"/>
<path d="M3656 1001 c-4 -7 -5 -15 -2 -18 9 -9 19 4 14 18 -4 11 -6 11 -12 0z"/>
<path d="M2571 964 c0 -11 3 -14 6 -6 3 7 2 16 -1 19 -3 4 -6 -2 -5 -13z"/>
<path d="M2842 950 c-12 -12 -22 -16 -22 -10 0 5 -7 10 -15 10 -8 0 -15 -4
-15 -10 0 -5 4 -10 9 -10 4 0 6 -11 3 -25 -2 -14 -10 -25 -17 -25 -14 0 -45
-53 -45 -77 0 -7 -6 -13 -13 -13 -8 0 -20 -12 -28 -27 -8 -16 -22 -35 -31 -44
-19 -17 -25 -34 -8 -24 6 3 10 1 10 -5 0 -6 -10 -8 -25 -4 -19 5 -25 2 -25
-10 0 -9 -7 -16 -15 -16 -8 0 -21 -15 -29 -32 -8 -18 -15 -27 -15 -20 -2 21
-31 13 -31 -9 0 -11 -4 -17 -10 -14 -13 8 -13 62 0 70 6 4 7 -1 3 -11 -5 -14
-3 -16 12 -10 11 4 22 2 27 -6 5 -9 8 -10 8 -1 0 7 -12 25 -26 40 -14 15 -23
22 -19 16 6 -13 -5 -17 -38 -13 -10 1 -16 -4 -15 -12 2 -8 -5 -12 -19 -10 -16
2 -23 -2 -23 -14 0 -12 -7 -15 -30 -12 -16 2 -31 0 -33 -6 -3 -6 -3 3 -1 19 1
17 0 25 -2 19 -3 -7 -14 -10 -24 -7 -14 4 -20 0 -20 -12 0 -10 5 -15 13 -12 8
3 14 -1 14 -8 0 -8 -9 -16 -19 -18 -20 -6 -40 26 -31 49 6 16 -75 56 -106 52
-16 -2 -25 2 -24 9 2 7 -4 10 -12 6 -13 -4 -12 -8 5 -23 11 -9 20 -22 20 -29
0 -6 6 -11 14 -11 8 0 17 -6 20 -12 2 -7 4 -4 3 7 -1 11 3 21 8 22 6 1 9 -5 7
-13 -3 -16 19 -15 30 1 4 6 6 -3 5 -20 -2 -25 4 -33 35 -50 37 -19 53 -40 23
-29 -19 8 -19 0 1 -20 14 -15 14 -16 -5 -16 -12 0 -21 3 -21 8 0 4 -14 22 -30
41 -17 18 -30 38 -30 42 0 5 -4 9 -10 9 -14 0 11 -52 33 -68 9 -7 15 -18 12
-23 -4 -5 -1 -9 6 -9 7 0 9 -3 5 -7 -4 -4 -15 3 -25 16 -10 13 -30 25 -46 26
-15 2 -32 8 -38 14 -16 16 -57 14 -57 -3 0 -21 -19 -30 -34 -16 -10 7 -16 8
-19 0 -3 -6 -4 -5 -2 2 1 7 8 12 15 10 12 -3 40 15 40 27 0 3 -11 6 -25 6 -14
0 -25 -4 -25 -8 0 -5 -10 -7 -21 -5 -27 4 -35 -27 -11 -43 15 -9 14 -10 -3 -6
-15 3 -21 -1 -21 -14 0 -11 4 -15 11 -9 6 5 19 1 33 -10 22 -18 31 -37 12 -25
-9 5 -15 -24 -11 -48 1 -5 -3 -6 -9 -2 -5 3 -10 15 -10 26 0 10 -4 19 -9 19
-14 0 -3 -47 16 -77 17 -26 17 -26 -5 -14 -12 6 -25 24 -28 39 -8 31 -32 62
-48 62 -6 0 0 -9 14 -20 23 -18 24 -20 5 -20 -12 0 -26 -5 -33 -12 -9 -9 -12
-9 -12 0 0 7 -7 12 -15 12 -8 0 -15 8 -15 18 0 14 -2 14 -9 3 -5 -8 -16 -11
-24 -8 -11 4 -14 1 -10 -9 4 -10 0 -12 -13 -8 -34 13 -38 17 -18 26 14 6 12 7
-11 4 -16 -2 -39 -6 -50 -11 -16 -5 -17 -5 -5 4 13 10 13 12 0 21 -8 5 -23 7
-33 4 -10 -3 -26 1 -35 9 -9 8 -30 17 -47 21 -28 6 -29 5 -11 -9 11 -8 28 -15
39 -15 10 0 16 -3 14 -7 -3 -5 1 -14 9 -21 8 -7 14 -9 14 -5 0 4 5 0 11 -9 5
-10 17 -18 25 -18 8 0 29 -14 47 -31 17 -17 42 -38 54 -46 12 -8 25 -23 28
-33 5 -15 21 -18 113 -22 92 -4 114 -8 155 -31 56 -30 113 -34 191 -11 27 8
61 14 74 14 14 0 48 11 76 24 28 13 73 27 99 30 39 6 50 12 60 34 14 31 46 61
65 62 30 0 100 90 71 90 -6 0 -7 5 -4 10 6 9 -11 14 -44 12 -8 0 -23 6 -34 13
-18 13 -18 14 12 29 17 9 31 21 31 26 0 6 11 10 25 10 14 0 25 4 25 9 0 5 -10
7 -22 3 -17 -4 -20 -2 -15 11 4 10 1 17 -6 17 -8 0 -8 3 2 9 11 7 11 9 0 14
-8 3 -2 6 14 6 20 1 27 6 27 21 0 12 -7 20 -16 20 -14 0 -14 2 0 15 8 8 20 15
26 15 7 0 10 8 7 19 -2 10 1 18 7 18 39 -1 56 4 50 14 -3 6 0 15 7 20 11 7 10
9 -5 9 -16 0 -17 2 -5 17 13 15 12 15 -8 4 -13 -6 -23 -16 -23 -22 0 -6 5 -7
10 -4 6 3 10 2 10 -3 0 -5 -14 -12 -32 -14 -27 -4 -29 -3 -13 8 11 8 16 21 12
34 -4 15 0 20 13 20 18 0 73 39 56 40 -5 0 -18 -7 -28 -17 -20 -17 -39 -10
-21 8 6 6 9 18 6 25 -3 8 0 21 7 29 18 22 7 18 -18 -5z m-127 -230 c-3 -5 -11
-10 -16 -10 -6 0 -7 5 -4 10 3 6 11 10 16 10 6 0 7 -4 4 -10z m-109 -96 c-3
-9 -6 -22 -6 -30 0 -8 -4 -14 -8 -14 -5 0 -7 14 -4 30 2 17 9 30 14 30 6 0 7
-7 4 -16z m-106 -7 c0 -2 -10 -12 -22 -23 l-23 -19 19 23 c18 21 26 27 26 19z
m-370 -87 c0 -5 6 -10 13 -10 7 0 22 -7 33 -15 19 -15 19 -15 -1 -9 -50 15
-87 44 -55 44 6 0 10 -4 10 -10z m595 -10 c3 -6 -4 -10 -17 -10 -18 0 -20 2
-8 10 19 12 18 12 25 0z m-395 -22 c0 -9 4 -8 11 2 9 13 10 13 6 0 -5 -18 -29
-20 -34 -2 -3 6 0 12 6 12 6 0 11 -6 11 -12z m-194 -13 c10 -8 14 -15 8 -15
-5 0 -19 7 -30 15 -10 8 -14 15 -8 15 5 0 19 -7 30 -15z m626 -2 c-6 -2 -10
-9 -6 -14 3 -5 1 -9 -5 -9 -13 0 -22 15 -14 24 3 3 13 6 22 5 11 0 12 -2 3 -6z
m-497 -37 c28 -26 28 -27 5 -15 -14 7 -27 12 -30 12 -3 0 -16 8 -30 19 l-24
19 25 -3 c14 -2 38 -16 54 -32z m-142 -29 c15 -10 27 -23 27 -30 0 -9 -2 -9
-8 0 -4 6 -21 19 -37 27 -16 8 -30 23 -31 33 -2 16 -1 16 9 3 7 -8 24 -23 40
-33z m-228 -7 c-3 -5 -11 -10 -16 -10 -6 0 -7 5 -4 10 3 6 11 10 16 10 6 0 7
-4 4 -10z m440 0 c3 -5 2 -10 -4 -10 -5 0 -13 5 -16 10 -3 6 -2 10 4 10 5 0
13 -4 16 -10z m-85 -106 c0 -8 -19 -13 -24 -6 -3 5 1 9 9 9 8 0 15 -2 15 -3z
m34 -20 c3 -8 2 -12 -4 -9 -6 3 -10 10 -10 16 0 14 7 11 14 -7z"/>
<path d="M3650 961 c0 -7 -10 -9 -27 -5 -22 5 -25 4 -17 -5 13 -14 70 -11 67
4 -2 14 -23 19 -23 6z"/>
<path d="M2 928 c1 -21 6 -38 10 -38 10 0 9 29 -2 55 -7 16 -9 12 -8 -17z"/>
<path d="M2416 951 c-4 -5 -2 -12 3 -15 5 -4 12 -2 15 3 4 5 2 12 -3 15 -5 4
-12 2 -15 -3z"/>
<path d="M2559 923 c-13 -16 -12 -17 4 -4 16 13 21 21 13 21 -2 0 -10 -8 -17
-17z"/>
<path d="M2750 936 c0 -2 7 -6 15 -10 8 -3 15 -1 15 4 0 6 -7 10 -15 10 -8 0
-15 -2 -15 -4z"/>
<path d="M3453 922 c-11 -15 -13 -15 -22 -2 -7 9 -11 10 -11 3 0 -6 -10 -13
-22 -15 -25 -3 -31 -29 -9 -36 10 -3 12 0 8 12 -5 13 -2 16 11 14 18 -4 18 -7
8 -50 -4 -17 -2 -28 4 -28 5 0 10 9 10 21 0 15 4 19 19 14 11 -3 22 -1 26 5 3
5 0 10 -8 10 -25 0 -8 40 17 41 14 0 16 2 6 6 -8 3 -17 10 -20 14 -3 5 -11 0
-17 -9z"/>
<path d="M3670 925 c-7 -9 -19 -14 -27 -11 -7 3 -13 -1 -13 -8 0 -17 38 -10
58 10 7 7 20 11 30 8 14 -5 15 -4 2 5 -21 15 -35 14 -50 -4z"/>
<path d="M2612 918 c-7 -7 -12 -20 -12 -29 0 -9 -9 -19 -20 -22 -11 -3 -20
-12 -20 -21 0 -10 6 -13 15 -10 8 4 12 11 8 17 -4 6 0 8 10 4 12 -5 18 1 23
21 4 15 11 33 17 40 12 16 -5 16 -21 0z"/>
<path d="M2422 908 c-16 -16 -15 -25 3 -25 8 0 15 9 15 19 0 21 -2 22 -18 6z"/>
<path d="M2720 909 c0 -5 5 -7 10 -4 6 3 10 8 10 11 0 2 -4 4 -10 4 -5 0 -10
-5 -10 -11z"/>
<path d="M1680 900 c0 -5 7 -10 15 -10 8 0 15 5 15 10 0 6 -7 10 -15 10 -8 0
-15 -4 -15 -10z"/>
<path d="M2290 880 c0 -5 7 -10 16 -10 8 0 12 5 9 10 -3 6 -10 10 -16 10 -5 0
-9 -4 -9 -10z"/>
<path d="M2635 879 c-9 -14 -2 -20 14 -10 8 6 9 11 3 15 -6 3 -14 1 -17 -5z"/>
<path d="M2344 862 c2 -9 8 -18 15 -20 8 -3 9 -8 1 -17 -8 -9 -6 -14 6 -19 22
-8 40 4 23 16 -10 7 -8 8 9 5 27 -6 28 3 4 24 -28 24 -60 30 -58 11z"/>
<path d="M836 849 c-24 -24 -62 -25 -75 -1 -8 13 -10 14 -11 2 0 -13 -2 -13
-9 -1 -8 12 -12 13 -26 1 -13 -10 -13 -15 -3 -21 10 -7 9 -9 -3 -9 -9 0 -16
-7 -16 -15 0 -8 6 -15 13 -15 8 0 11 -6 8 -15 -4 -8 -1 -15 5 -15 6 0 11 -4
11 -8 0 -5 -7 -9 -15 -9 -14 0 -19 10 -16 30 0 4 -3 7 -9 7 -5 0 -10 -4 -10
-10 0 -5 -8 -10 -17 -9 -11 0 -13 3 -5 6 21 8 13 23 -13 21 -14 -1 -25 -8 -25
-16 0 -7 4 -11 9 -8 5 4 7 -2 4 -13 -2 -10 1 -20 9 -23 21 -8 113 6 111 17 -1
6 5 9 13 7 8 -2 14 2 14 8 0 5 7 10 17 10 29 0 83 49 83 76 0 29 -18 30 -44 3z"/>
<path d="M2321 844 c0 -11 3 -14 6 -6 3 7 2 16 -1 19 -3 4 -6 -2 -5 -13z"/>
<path d="M2710 825 c0 -14 2 -25 4 -25 2 0 6 11 8 25 3 14 1 25 -3 25 -5 0 -9
-11 -9 -25z"/>
<path d="M3515 839 c-4 -6 -13 -8 -21 -5 -8 3 -14 1 -14 -4 0 -15 26 -12 40 5
7 8 10 15 7 15 -3 0 -9 -5 -12 -11z"/>
<path d="M646 832 c-2 -4 -1 -14 5 -22 7 -12 9 -10 9 8 0 23 -5 28 -14 14z"/>
<path d="M2100 832 c0 -15 22 -21 42 -10 12 5 30 3 54 -7 21 -8 39 -13 42 -10
8 7 -49 27 -95 32 -27 4 -43 2 -43 -5z"/>
<path d="M2431 824 c0 -11 3 -14 6 -6 3 7 2 16 -1 19 -3 4 -6 -2 -5 -13z"/>
<path d="M2681 793 c-7 -8 -11 -16 -8 -19 2 -2 10 2 17 11 17 20 9 27 -9 8z"/>
<path d="M3420 800 c-9 -6 -10 -10 -3 -10 6 0 15 5 18 10 8 12 4 12 -15 0z"/>
<path d="M461 784 c0 -11 3 -14 6 -6 3 7 2 16 -1 19 -3 4 -6 -2 -5 -13z"/>
<path d="M3341 779 c13 -9 29 -15 36 -12 24 9 13 21 -23 25 -35 4 -35 4 -13
-13z"/>
<path d="M2045 770 c3 -5 12 -7 20 -3 21 7 19 13 -6 13 -11 0 -18 -4 -14 -10z"/>
<path d="M2315 770 c3 -5 11 -10 16 -10 6 0 7 5 4 10 -3 6 -11 10 -16 10 -6 0
-7 -4 -4 -10z"/>
<path d="M2363 766 c13 -10 14 -15 6 -18 -10 -3 -10 -6 -1 -12 7 -4 12 -3 12
3 0 6 7 8 15 5 29 -11 15 6 -17 21 -26 12 -29 13 -15 1z"/>
<path d="M2641 766 c-7 -8 -8 -17 -3 -20 6 -3 13 1 16 10 9 23 2 28 -13 10z"/>
<path d="M3190 764 c0 -12 4 -14 13 -7 6 6 19 13 27 16 9 3 3 6 -12 6 -20 1
-28 -4 -28 -15z"/>
<path d="M1976 735 c4 -8 10 -15 15 -15 5 0 9 7 9 15 0 8 -7 15 -15 15 -9 0
-12 -6 -9 -15z"/>
<path d="M2138 742 c-10 -2 -18 -8 -18 -14 0 -6 12 -8 30 -4 17 3 30 2 30 -3
0 -13 38 -1 44 14 4 12 -38 16 -86 7z"/>
<path d="M775 730 c3 -5 8 -10 11 -10 2 0 4 5 4 10 0 6 -5 10 -11 10 -5 0 -7
-4 -4 -10z"/>
<path d="M2608 723 c7 -3 16 -2 19 1 4 3 -2 6 -13 5 -11 0 -14 -3 -6 -6z"/>
<path d="M668 713 c-9 -2 -19 -11 -22 -19 -4 -10 -1 -14 6 -11 7 2 29 -4 48
-15 19 -11 27 -13 18 -5 -20 16 -24 37 -8 37 6 0 10 5 10 10 0 10 -21 11 -52
3z"/>
<path d="M738 713 c6 -2 18 -2 25 0 6 3 1 5 -13 5 -14 0 -19 -2 -12 -5z"/>
<path d="M3050 710 c0 -5 7 -7 15 -4 8 4 15 8 15 10 0 2 -7 4 -15 4 -8 0 -15
-4 -15 -10z"/>
<path d="M300 668 c0 -26 -3 -30 -10 -18 -9 13 -12 13 -23 -1 -6 -9 -18 -14
-24 -12 -29 10 -36 -5 -8 -18 19 -9 45 -13 70 -9 35 4 40 8 41 33 1 15 -3 27
-7 27 -5 0 -9 7 -9 15 0 8 -7 15 -15 15 -10 0 -15 -10 -15 -32z"/>
<path d="M1915 690 c4 -6 11 -8 16 -5 14 9 11 15 -7 15 -8 0 -12 -5 -9 -10z"/>
<path d="M2590 685 c-10 -12 -16 -13 -26 -4 -9 7 -14 8 -14 1 0 -17 25 -20 45
-6 10 8 16 16 13 19 -3 3 -11 -1 -18 -10z"/>
<path d="M2845 690 c-3 -5 -1 -10 4 -10 6 0 11 5 11 10 0 6 -2 10 -4 10 -3 0
-8 -4 -11 -10z"/>
<path d="M2018 683 c7 -3 16 -2 19 1 4 3 -2 6 -13 5 -11 0 -14 -3 -6 -6z"/>
<path d="M2144 668 c3 -15 26 -23 26 -8 0 6 -4 9 -9 6 -5 -4 -12 -1 -14 4 -3
6 -4 5 -3 -2z"/>
<path d="M590 656 c0 -7 9 -16 21 -19 20 -5 20 -5 3 14 -20 23 -24 23 -24 5z"/>
<path d="M1212 658 c-7 -7 -12 -18 -12 -24 0 -7 -8 -14 -17 -16 -15 -3 -15 -5
3 -10 28 -7 39 1 48 35 7 29 -2 35 -22 15z"/>
<path d="M3135 660 c3 -5 8 -10 11 -10 2 0 4 5 4 10 0 6 -5 10 -11 10 -5 0 -7
-4 -4 -10z"/>
<path d="M682 638 c5 -15 28 -23 28 -10 0 5 -7 13 -16 16 -10 4 -14 1 -12 -6z"/>
<path d="M1990 630 c0 -5 7 -7 15 -4 8 4 15 8 15 10 0 2 -7 4 -15 4 -8 0 -15
-4 -15 -10z"/>
<path d="M558 625 c-2 -3 -19 -7 -37 -9 -31 -3 -48 -12 -40 -20 7 -7 89 17 89
26 0 9 -4 10 -12 3z"/>
<path d="M735 620 c3 -5 8 -10 11 -10 2 0 4 5 4 10 0 6 -5 10 -11 10 -5 0 -7
-4 -4 -10z"/>
<path d="M580 610 c0 -5 4 -10 9 -10 6 0 13 5 16 10 3 6 -1 10 -9 10 -9 0 -16
-4 -16 -10z"/>
<path d="M2132 609 c2 -8 14 -17 28 -21 14 -3 35 -10 48 -13 17 -6 21 -4 17 6
-3 8 -19 15 -36 16 -17 1 -38 8 -46 14 -11 10 -14 9 -11 -2z"/>
<path d="M3098 613 c7 -3 16 -2 19 1 4 3 -2 6 -13 5 -11 0 -14 -3 -6 -6z"/>
<path d="M405 600 c3 -5 8 -10 11 -10 2 0 4 5 4 10 0 6 -5 10 -11 10 -5 0 -7
-4 -4 -10z"/>
<path d="M1506 593 c-6 -14 -5 -15 5 -6 7 7 10 15 7 18 -3 3 -9 -2 -12 -12z"/>
<path d="M1995 600 c-3 -5 -1 -10 4 -10 6 0 11 5 11 10 0 6 -2 10 -4 10 -3 0
-8 -4 -11 -10z"/>
<path d="M642 588 c-18 -18 -14 -30 8 -23 14 4 20 2 20 -9 0 -10 7 -13 21 -11
30 6 37 15 11 15 -11 0 -27 9 -35 20 -10 15 -16 17 -25 8z"/>
<path d="M1155 587 c-17 -13 -15 -14 15 -21 38 -7 43 -5 34 18 -7 20 -24 21
-49 3z"/>
<path d="M1940 575 c10 -12 15 -13 21 -4 4 8 9 5 14 -10 3 -11 3 -25 0 -31 -3
-5 0 -10 8 -10 8 0 18 7 21 16 7 19 -30 53 -58 54 -15 0 -16 -2 -6 -15z"/>
<path d="M526 565 c-19 -14 -18 -15 13 -15 21 0 31 4 29 12 -6 18 -21 19 -42
3z"/>
<path d="M2760 560 c-9 -6 -10 -10 -3 -10 6 0 15 5 18 10 8 12 4 12 -15 0z"/>
<path d="M2805 550 c-3 -5 -1 -10 4 -10 6 0 11 5 11 10 0 6 -2 10 -4 10 -3 0
-8 -4 -11 -10z"/>
<path d="M1951 534 c0 -11 3 -14 6 -6 3 7 2 16 -1 19 -3 4 -6 -2 -5 -13z"/>
<path d="M690 513 c-19 -18 -22 -25 -12 -35 9 -9 12 -8 12 5 0 22 9 21 39 -3
19 -17 21 -23 11 -35 -10 -13 -10 -19 4 -33 18 -21 22 -42 4 -24 -9 9 -15 9
-27 -1 -12 -10 -13 -9 -7 1 13 22 -14 63 -36 56 -12 -4 -18 -1 -16 8 2 7 -3
12 -9 11 -7 -2 -13 1 -13 6 0 5 -9 11 -20 14 -13 3 -20 0 -20 -9 0 -8 6 -11
17 -7 13 5 15 2 10 -11 -5 -12 -2 -16 10 -14 9 2 18 -3 21 -11 3 -10 -5 -12
-39 -7 l-44 6 40 -14 c32 -10 36 -15 22 -21 -9 -4 -26 -5 -37 -2 -11 3 -20 1
-20 -4 0 -4 -8 -5 -17 -2 -11 4 -12 8 -5 11 19 6 14 42 -5 42 -14 1 -12 4 7
15 l25 14 -37 1 c-20 0 -40 -4 -43 -10 -3 -6 1 -7 9 -4 9 3 16 1 16 -5 0 -6
-7 -11 -16 -11 -8 0 -13 -4 -10 -9 3 -5 -1 -14 -9 -21 -8 -7 -15 -18 -15 -24
0 -6 5 -3 11 7 5 9 17 17 25 17 8 0 12 5 9 10 -3 6 -2 10 3 10 18 0 20 -13 5
-36 -8 -13 -12 -24 -9 -24 4 0 2 -9 -4 -19 -8 -16 -6 -22 7 -30 10 -6 13 -11
7 -11 -6 0 -19 9 -29 20 -24 26 -35 25 -35 -2 -1 -21 -2 -22 -14 -5 -16 21
-26 22 -26 2 0 -9 7 -18 15 -21 8 -4 15 -10 15 -15 0 -4 -7 -6 -15 -3 -18 7
-20 -12 -2 -19 9 -4 8 -8 -3 -16 -13 -9 -12 -11 5 -11 15 0 17 -2 6 -9 -11 -7
-11 -15 -2 -42 8 -23 8 -35 1 -37 -5 -2 -10 -11 -10 -19 0 -12 3 -13 13 -4 10
8 17 7 25 -1 19 -19 14 -30 -8 -18 -11 6 -20 8 -20 4 0 -3 -6 -1 -14 5 -11 10
-14 7 -12 -13 0 -13 3 -23 6 -21 10 6 35 -13 28 -21 -4 -3 -30 -7 -57 -7 -52
-1 -60 -9 -38 -39 12 -15 37 -17 203 -17 184 1 272 11 243 30 -11 7 -10 9 4 9
9 0 17 -4 17 -10 0 -5 7 -10 15 -10 8 0 24 -6 36 -12 23 -15 33 -4 56 62 16
45 16 67 1 73 -10 4 -9 8 2 16 12 9 13 14 3 31 -16 24 -17 33 -3 25 15 -9 12
12 -9 58 -24 52 -26 67 -16 90 4 10 5 20 2 24 -8 7 -31 -16 -40 -39 -8 -22
-21 -23 -37 -3 -7 8 -21 15 -31 15 -10 0 -21 5 -25 12 -5 8 0 9 14 6 25 -7 29
4 7 22 -20 17 -19 30 3 30 14 0 15 2 2 10 -10 6 -16 6 -18 0 -2 -6 -11 -10
-20 -10 -12 0 -13 3 -4 12 8 8 6 16 -10 30 -12 10 -16 18 -11 18 6 0 13 9 16
20 3 11 1 20 -4 20 -5 0 -9 -4 -9 -10 0 -5 -7 -10 -16 -10 -13 0 -14 3 -5 13
19 24 -12 16 -39 -10z m-130 -154 c0 -6 -4 -7 -10 -4 -5 3 -10 11 -10 16 0 6
5 7 10 4 6 -3 10 -11 10 -16z m67 5 c-3 -3 -12 -4 -19 -1 -8 3 -5 6 6 6 11 1
17 -2 13 -5z m8 -24 c3 -5 1 -10 -4 -10 -6 0 -11 5 -11 10 0 6 2 10 4 10 3 0
8 -4 11 -10z"/>
<path d="M2948 533 c7 -3 16 -2 19 1 4 3 -2 6 -13 5 -11 0 -14 -3 -6 -6z"/>
<path d="M610 511 c23 -14 48 -17 52 -7 2 5 -13 10 -32 12 -24 2 -30 1 -20 -5z"/>
<path d="M529 494 c-9 -11 -8 -14 7 -14 11 0 25 4 32 9 11 6 9 9 -7 14 -11 3
-25 -1 -32 -9z"/>
<path d="M1924 495 c8 -8 17 -15 20 -15 3 0 3 7 0 15 -4 8 -13 15 -21 15 -12
0 -12 -2 1 -15z"/>
<path d="M1870 480 c0 -5 7 -7 15 -4 8 4 15 8 15 10 0 2 -7 4 -15 4 -8 0 -15
-4 -15 -10z"/>
<path d="M430 365 c0 -8 7 -15 15 -15 9 0 12 6 9 15 -4 8 -10 15 -15 15 -5 0
-9 -7 -9 -15z"/>
<path d="M485 360 c3 -5 11 -10 16 -10 6 0 7 5 4 10 -3 6 -11 10 -16 10 -6 0
-7 -4 -4 -10z"/>
<path d="M342 316 c-11 -25 0 -46 24 -46 6 0 15 -7 18 -16 4 -11 2 -15 -8 -11
-10 4 -13 -1 -12 -16 4 -36 17 -67 27 -67 5 0 9 -8 9 -17 1 -17 1 -17 11 0 6
9 8 27 4 40 -5 20 -4 20 9 -3 16 -27 20 -20 10 18 -5 19 -12 22 -30 18 -28 -7
-32 8 -6 24 16 9 15 11 -7 30 -12 11 -27 17 -32 14 -5 -3 -6 9 -3 26 8 36 1
39 -14 6z"/>
<path d="M380 329 c0 -5 5 -7 10 -4 6 3 10 8 10 11 0 2 -4 4 -10 4 -5 0 -10
-5 -10 -11z"/>
<path d="M340 130 c-12 -8 -11 -10 8 -10 12 0 22 5 22 10 0 13 -11 13 -30 0z"/>
<path d="M270 100 c0 -5 16 -17 36 -26 30 -15 37 -15 45 -3 6 10 0 17 -24 26
-40 15 -57 16 -57 3z"/>
</g>
</svg>
